<svg version="1" xmlns="http://www.w3.org/2000/svg" width="346.667" height="346.667" viewBox="0 0 260.000000 260.000000"><path d="M0 114.5V229h91v31h169V25h-33V0H0v114.5zm106.5-87.3c7.3 1.6 16.1 5.8 23.2 11.2 5.3 4 9.7 9.1 16.7 19.2 1.5 2.1 2.5 2.2 23.3 2.7 23.7.5 27.7 1.2 38.6 6.9 10.6 5.7 16.8 15.1 18.7 28.7 2 14.5-2.5 28.6-12.6 38.6l-5.3 5.4 5.2 2.9c7.4 4.2 15.8 13.5 18.6 20.8 2.9 7.4 4 22.9 2.1 31.2-3.9 17.7-17.1 31.2-34.9 35.7-3.7 1-11.2 1.7-18.9 1.8l-12.7.2-.3-22.2-.2-22.1 9.4-.4c11-.4 13.6-1.8 13.6-7.5 0-7.2-3.6-9.3-15.6-9.3H168v-45.8l4.4-.6c7.9-1.2 12-6.7 9.7-12.9-1.5-4-5.9-5.7-14.6-5.7H160v127h-51v-90.9l-12 .6-12 .6v-22.6c0-24.9-.6-22.7 6.7-24.2 8.4-1.7 11.9-12.8 5.8-18.5-5.2-4.9-14.8-4.2-18.9 1.3-2.1 2.8-2.1 3.7-2.4 62.8L76 202H25v-59.8c.1-63.3.5-69.7 4.9-79.7 12-27.1 44.8-42.2 76.6-35.3z"/></svg>